<svg width="203" height="194" viewBox="0 0 203 194" fill="none" xmlns="http://www.w3.org/2000/svg">
<circle cx="106" cy="97" r="97" fill="#FBF8F6"/>
<g filter="url(#filter0_d_667_15798)">
<path d="M147.451 94.3565C147.451 117.38 130.737 138.944 107.901 145.254C106.348 145.677 104.653 145.677 103.099 145.254C80.2634 138.944 63.5488 117.38 63.5488 94.3565V73.687C63.5488 69.8262 66.4681 65.4474 70.0935 63.9878L96.3188 53.2528C102.204 50.8516 108.843 50.8516 114.728 53.2528L140.954 63.9878C144.532 65.4474 147.498 69.8262 147.498 73.687L147.451 94.3565Z" fill="#FF6A00"/>
<path d="M117.271 91.4376C117.271 84.9401 111.997 79.6667 105.5 79.6667C99.0023 79.6667 93.729 84.9401 93.729 91.4376C93.729 96.7109 97.2132 101.09 101.969 102.596V114.979C101.969 116.91 103.569 118.51 105.5 118.51C107.43 118.51 109.031 116.91 109.031 114.979V102.596C113.787 101.09 117.271 96.7109 117.271 91.4376Z" fill="white"/>
</g>
<circle cx="9" cy="88" r="9" fill="#CED0D1"/>
<circle cx="58" cy="17" r="8" stroke="#CED0D1" stroke-width="2"/>
<circle cx="153" cy="171" r="8" stroke="#CED0D1" stroke-width="2"/>
<circle cx="130" cy="22" r="3" fill="#CED0D1"/>
<circle cx="186" cy="112" r="5" fill="#CED0D1"/>
<circle cx="49" cy="174" r="3" fill="#CED0D1"/>
<circle cx="180.5" cy="21.5" r="12.5" stroke="#CED0D1" stroke-width="2"/>
<defs>
<filter id="filter0_d_667_15798" x="29" y="26" width="161" height="161" filterUnits="userSpaceOnUse" color-interpolation-filters="sRGB">
<feFlood flood-opacity="0" result="BackgroundImageFix"/>
<feColorMatrix in="SourceAlpha" type="matrix" values="0 0 0 0 0 0 0 0 0 0 0 0 0 0 0 0 0 0 127 0" result="hardAlpha"/>
<feOffset dx="4" dy="8"/>
<feGaussianBlur stdDeviation="12"/>
<feComposite in2="hardAlpha" operator="out"/>
<feColorMatrix type="matrix" values="0 0 0 0 0.364706 0 0 0 0 0.12549 0 0 0 0 0.403922 0 0 0 0.3 0"/>
<feBlend mode="normal" in2="BackgroundImageFix" result="effect1_dropShadow_667_15798"/>
<feBlend mode="normal" in="SourceGraphic" in2="effect1_dropShadow_667_15798" result="shape"/>
</filter>
</defs>
</svg>
